<svg xmlns="http://www.w3.org/2000/svg" viewBox="0 0 128 128" role="img" aria-label="NJTI logo">
  <defs>
    <linearGradient id="bg" x1="0" y1="0" x2="1" y2="1">
      <stop offset="0" stop-color="#2B6397"/>
      <stop offset="1" stop-color="#D2A574"/>
    </linearGradient>
    <linearGradient id="whale" x1="0" y1="0" x2="1" y2="1">
      <stop offset="0" stop-color="#EAF4FF"/>
      <stop offset="1" stop-color="#FFFFFF"/>
    </linearGradient>
  </defs>
  <rect width="128" height="128" rx="32" fill="url(#bg)"/>
  <circle cx="32" cy="30" r="18" fill="#FFFFFF" opacity="0.16"/>
  <circle cx="100" cy="95" r="24" fill="#FFFFFF" opacity="0.14"/>
  <path d="M28 70c8-18 27-29 49-25 20 3 34 16 33 30-1 12-16 19-36 18-25-1-44-8-46-23Z" fill="url(#whale)"/>
  <path d="M91 49c9-11 18-14 27-11-2 9-9 16-21 19" fill="#EAF4FF"/>
  <path d="M32 64c-9-7-16-8-22-3 4 8 11 12 21 10" fill="#EAF4FF"/>
  <circle cx="82" cy="66" r="3" fill="#1B2A41"/>
  <path d="M53 82c9 5 24 7 39 3" fill="none" stroke="#2B6397" stroke-width="5" stroke-linecap="round" opacity="0.45"/>
  <text x="64" y="116" text-anchor="middle" font-family="Arial, Helvetica, sans-serif" font-size="22" font-weight="800" fill="#FFFFFF" letter-spacing="1">NJTI</text>
</svg>
